<?xml version="1.0" encoding="UTF-8"?>
<svg version="1.1" xmlns="http://www.w3.org/2000/svg" width="361" height="390">
<path d="M0 0 C3.26804957 1.2878568 6.36896672 2.65194809 9.45703125 4.328125 C10.30942383 4.79065674 11.16181641 5.25318848 12.04003906 5.72973633 C13.41240723 6.48226685 13.41240723 6.48226685 14.8125 7.25 C15.78026367 7.77940186 16.74802734 8.30880371 17.74511719 8.85424805 C26.84451945 13.86213463 35.81232972 19.08432192 44.765625 24.34765625 C50.1999357 27.54070245 55.66185892 30.68354248 61.13061523 33.81713867 C102.49161795 57.54404676 102.49161795 57.54404676 107.54251099 75.00048828 C109.06519523 80.71169804 109.54289218 86.11731701 109.67919922 92.0078125 C109.71228621 93.03875031 109.74537319 94.06968811 109.77946281 95.13186646 C110.13572943 107.3769972 110.14470159 119.62577131 110.1328125 131.875 C110.13348904 134.38395192 110.13446194 136.89290377 110.13571167 139.40185547 C110.13717223 144.61882155 110.13508763 149.83577033 110.13037109 155.05273438 C110.12467486 161.66809468 110.12796277 168.28341437 110.13394356 174.89877319 C110.13759395 180.06730442 110.13639025 185.23582637 110.13381577 190.40435791 C110.13315882 192.84067795 110.13393063 195.27699889 110.13629532 197.71331787 C110.14553265 209.89798572 110.04988297 222.06881634 109.59716797 234.24609375 C109.56420687 235.22929596 109.53124577 236.21249817 109.49728584 237.22549438 C108.89150794 251.50835203 103.49469071 261.95999227 93.33789062 271.96142578 C89.30867175 275.47479019 84.78278117 277.97561165 80.125 280.5625 C79.08053711 281.15691895 78.03607422 281.75133789 76.95996094 282.36376953 C74.75435916 283.61890731 72.54596953 284.86915746 70.33496094 286.11474609 C66.02278903 288.5524175 61.73763625 291.03534304 57.45214844 293.51953125 C47.87433601 299.06934632 38.26601639 304.56548535 28.65057373 310.04971313 C19.28650905 315.39097357 9.93687623 320.7555722 0.625 326.1875 C-0.34759766 326.75484863 -1.32019531 327.32219727 -2.32226562 327.90673828 C-7.19199331 330.75394493 -12.04897431 333.62091547 -16.890625 336.515625 C-55.58287295 359.63636372 -55.58287295 359.63636372 -78.6875 355.125 C-90.4004329 351.80318704 -105.37465095 344.75533482 -113 335 C-114.4121807 331.09825329 -114.12233347 327.00804472 -114.09423828 322.91772461 C-114.09145194 321.23493976 -114.08878202 319.55215471 -114.08621216 317.86936951 C-114.08316196 316.97912016 -114.08011177 316.08887081 -114.07696915 315.17164421 C-114.06559065 310.4379575 -114.08614169 305.70436492 -114.1015625 300.97070312 C-114.11981705 294.95563241 -114.12862322 288.94107329 -114.09960938 282.92602539 C-114.07696977 278.05807606 -114.0886322 273.19123653 -114.12261581 268.32336617 C-114.12935147 266.47638834 -114.12379812 264.62932008 -114.10525894 262.78242302 C-114.00016739 251.5874154 -114.49909095 243.94222442 -122 235 C-122.92709537 233.68003693 -123.84488804 232.353398 -124.74609375 231.015625 C-125.64082661 229.75870296 -126.538036 228.50354076 -127.4375 227.25 C-132.32216418 220.38912766 -137.14105104 213.48529835 -141.9375 206.5625 C-146.79624827 199.56150637 -151.69079695 192.59079955 -156.6875 185.6875 C-157.20699219 184.96876709 -157.72648437 184.25003418 -158.26171875 183.50952148 C-160.97961936 179.75842892 -163.72038933 176.02586304 -166.484375 172.30859375 C-183.16717426 149.75397275 -183.16717426 149.75397275 -183.09765625 137.796875 C-183.09443359 136.8171875 -183.09121094 135.8375 -183.08789062 134.828125 C-183.07951172 133.81234375 -183.07113281 132.7965625 -183.0625 131.75 C-183.05798828 130.71875 -183.05347656 129.6875 -183.04882812 128.625 C-183.03706088 126.08327427 -183.02062011 123.54166681 -183 121 C-183.76054687 120.73574219 -184.52109375 120.47148437 -185.3046875 120.19921875 C-190.39249372 117.93551366 -193.07560901 113.54065165 -195.875 108.875 C-198.18917073 102.67134956 -198.05174592 95.41233119 -196.12109375 89.1484375 C-192.88901039 82.08692205 -188.32216758 77.24641707 -181.1875 74.125 C-173.47571752 71.64355939 -166.50348761 72.52783056 -159.1875 75.80859375 C-153.25694319 79.03862916 -148.41635213 85.51193418 -146.375 91.98046875 C-144.9213576 99.80893877 -146.20400909 106.36543325 -150.2890625 113.13671875 C-153.5903784 117.91215164 -156.73098752 120.56814808 -162 123 C-162.66 123 -163.32 123 -164 123 C-163.93941381 125.83543366 -163.85216609 128.66600145 -163.75 131.5 C-163.73582031 132.29148438 -163.72164062 133.08296875 -163.70703125 133.8984375 C-163.34256624 142.79138371 -159.52843293 148.67929841 -154.1875 155.625 C-146.76390109 165.49842556 -139.90899845 175.76345955 -133 186 C-127.75924436 181.67654522 -123.14266525 177.07158859 -118.5625 172.0625 C-112.46139302 165.45908437 -106.14830082 159.21027488 -99.40454102 153.26196289 C-90.83890492 145.52343039 -85.57624496 136.50660484 -84 125 C-83.91698712 122.87709919 -83.88213886 120.75196022 -83.88647461 118.62744141 C-83.88655014 117.38660797 -83.88662567 116.14577454 -83.88670349 114.86734009 C-83.89180887 113.52874714 -83.89702485 112.19015461 -83.90234375 110.8515625 C-83.90421094 109.47008312 -83.90563342 108.08860308 -83.90663147 106.7071228 C-83.91043298 103.08711897 -83.92024284 99.46715583 -83.93133545 95.84716797 C-83.94160065 92.14681549 -83.94614 88.44645639 -83.95117188 84.74609375 C-83.96186742 77.49737736 -83.97891515 70.2486944 -84 63 C-84.9485083 62.70359619 -85.8970166 62.40719238 -86.87426758 62.10180664 C-92.32466178 60.18056716 -95.58680361 55.86122508 -98.109375 50.75390625 C-100.83354943 43.33952586 -100.84086735 36.64976494 -98.1015625 29.23828125 C-94.64870392 22.22236647 -89.28782529 17.65968057 -82 15 C-74.02039594 12.72229693 -66.96984614 14.29647508 -59.82421875 18.18359375 C-54.1823215 21.93423354 -50.93542755 26.50695274 -49 33 C-47.92628169 40.82959189 -48.30371063 48.42023838 -53 55 C-56.2845206 58.42453569 -59.7236301 61.86181505 -64 64 C-64.00586624 64.97639435 -64.01173248 65.9527887 -64.01777649 66.95877075 C-64.07503918 76.16936883 -64.14781937 85.37973162 -64.23571491 94.5900898 C-64.28040424 99.32501644 -64.31966356 104.05985733 -64.34643555 108.79492188 C-64.37248283 113.36624557 -64.41289537 117.93723899 -64.46318626 122.508358 C-64.47984533 124.2505774 -64.49136559 125.99285391 -64.49761391 127.73514175 C-64.50726554 130.17940986 -64.53533666 132.6228349 -64.56762695 135.06689453 C-64.56619186 135.78403122 -64.56475677 136.50116791 -64.5632782 137.24003601 C-64.70546786 144.87185212 -67.68970789 149.08187332 -73.0222168 154.26757812 C-73.76902206 155.00058388 -73.76902206 155.00058388 -74.53091431 155.74839783 C-75.60476464 156.80090702 -76.6819668 157.85000534 -77.76218224 158.89598083 C-79.4719667 160.55329992 -81.17064793 162.22128984 -82.86665344 163.8927002 C-87.68730571 168.64022738 -92.5247039 173.37042071 -97.37524414 178.08740234 C-100.34806885 180.97986286 -103.30610048 183.88678521 -106.25553322 186.80308533 C-107.38025037 187.90919481 -108.5106263 189.00958098 -109.64670372 190.10401917 C-111.23370805 191.63333231 -112.80131545 193.1802935 -114.3659668 194.73242188 C-115.2629277 195.6070105 -116.15988861 196.48159912 -117.08403015 197.38269043 C-119.39831045 200.54411177 -119.48593453 202.16526196 -119 206 C-118.00913837 208.17687497 -118.00913837 208.17687497 -116.47265625 210.06640625 C-115.93165283 210.7931958 -115.39064941 211.51998535 -114.83325195 212.26879883 C-114.24890381 213.02572021 -113.66455566 213.7826416 -113.0625 214.5625 C-111.86888957 216.16078503 -110.67618687 217.75974836 -109.484375 219.359375 C-108.89333984 220.14376953 -108.30230469 220.92816406 -107.69335938 221.73632812 C-105.33733463 224.88584679 -103.05993534 228.08493711 -100.8125 231.3125 C-100.11769531 232.29863281 -99.42289062 233.28476562 -98.70703125 234.30078125 C-89.17713553 249.36979256 -93.95512758 275.1582159 -94.09594727 292.21875 C-94.12791368 296.16923753 -94.14388775 300.11972882 -94.16015625 304.0703125 C-94.18034569 305.88440109 -94.18034569 305.88440109 -94.20094299 307.73513794 C-94.20432175 308.86426605 -94.2077005 309.99339417 -94.21118164 311.15673828 C-94.21863907 312.143284 -94.2260965 313.12982971 -94.23377991 314.14627075 C-93.91792472 318.00188516 -93.32691701 321.76446058 -90.4152832 324.47558594 C-89.49235474 324.97493652 -89.49235474 324.97493652 -88.55078125 325.484375 C-87.86693359 325.86207031 -87.18308594 326.23976563 -86.47851562 326.62890625 C-85.76373047 326.99886719 -85.04894531 327.36882812 -84.3125 327.75 C-83.61705078 328.13542969 -82.92160156 328.52085937 -82.20507812 328.91796875 C-74.13675807 333.27230021 -66.63341834 335.41114315 -57.51953125 332.90234375 C-51.14814398 330.93098 -45.69615485 327.6614334 -40 324.25 C-38.27714035 323.23695852 -36.55427081 322.22393339 -34.83081055 321.21191406 C-33.05459191 320.16722383 -31.28104138 319.11811477 -29.5078125 318.06835938 C-24.03215426 314.83239956 -18.51372096 311.67049422 -13 308.5 C-10.83052295 307.24905548 -8.66125253 305.99775255 -6.4921875 304.74609375 C-5.41936523 304.12718262 -4.34654297 303.50827148 -3.24121094 302.87060547 C-0.01698995 301.00980544 3.20644874 299.14765709 6.4296875 297.28515625 C15.90114943 291.81400088 25.3756938 286.34907586 34.87995911 280.93508911 C41.25958182 277.30098464 47.63231352 273.65499077 54 270 C55.08587402 269.37722168 56.17174805 268.75444336 57.29052734 268.11279297 C60.34500139 266.35528984 63.39238976 264.58616654 66.4375 262.8125 C67.33694336 262.29606934 68.23638672 261.77963867 69.16308594 261.24755859 C77.09594525 256.59572498 83.4341033 251.41421308 86.09710693 242.20666504 C87.45655621 235.67285709 87.27971377 229.08708374 87.25878906 222.44335938 C87.26150366 220.98867112 87.26506722 219.53398424 87.26940918 218.07929993 C87.27847971 214.15163322 87.27501108 210.2240723 87.26865101 206.29640388 C87.26356326 202.1726568 87.26829014 198.04891836 87.27142334 193.9251709 C87.27505492 187.00201808 87.27028512 180.07890803 87.26074219 173.15576172 C87.24985919 165.16854662 87.25338534 157.18143365 87.264395 149.19422102 C87.27349093 142.31836308 87.27474189 135.44253577 87.26951766 128.56667376 C87.26641062 124.46799071 87.26595364 120.36935557 87.27259064 116.27067566 C87.27839711 112.41611676 87.27430723 108.56168866 87.26280212 104.70714378 C87.26017311 103.29831852 87.26089031 101.88948212 87.26532745 100.48066139 C87.44406907 85.79939859 87.44406907 85.79939859 81 73 C75.26606377 67.59018937 68.97392249 63.85755038 62.125 60 C60.99690918 59.35716064 59.86881836 58.71432129 58.70654297 58.05200195 C55.74340139 56.36479314 52.77455601 54.68793124 49.80322266 53.01519775 C48.00484259 52.00272633 46.20740626 50.98859692 44.41015625 49.97412109 C31.81923033 42.77411645 31.81923033 42.77411645 19 36 C18.67 61.74 18.34 87.48 18 114 C9.94955588 110.77982235 5.63339571 104.91886804 2.0625 97.125 C0.20373949 92.70178008 -1.1265295 89.04050137 -1.1328125 84.21875 C-1.13474609 83.1767041 -1.13667969 82.1346582 -1.13867188 81.06103516 C-1.13416016 79.88589355 -1.12964844 78.71075195 -1.125 77.5 C-1.12306641 76.25653809 -1.12113281 75.01307617 -1.11914062 73.73193359 C-1.03812423 49.15440603 -0.45774402 24.57283257 0 0 Z " fill="#3A82DA" transform="translate(248,32)"/>
<path d="M0 0 C0.64710938 0.32210449 1.29421875 0.64420898 1.9609375 0.97607422 C24.60875152 12.30509129 24.60875152 12.30509129 27.0819397 17.09576416 C28.23577381 20.74585813 28.27662818 24.16542759 28.25537109 27.95214844 C28.26080177 29.13124786 28.26080177 29.13124786 28.26634216 30.33416748 C28.27321868 32.03597608 28.27574488 33.73780665 28.27439499 35.4396286 C28.27342671 38.13944797 28.2864087 40.83887249 28.30337524 43.53863525 C28.34954836 51.21290008 28.37423739 58.88712443 28.38085938 66.56152344 C28.38589226 71.26182381 28.41023329 75.96171232 28.44618607 80.66187286 C28.45594423 82.44628672 28.45833789 84.23075753 28.45301437 86.01519012 C28.2080115 99.08050852 28.2080115 99.08050852 33 111 C33.42061707 111.66016617 33.84123413 112.32033234 34.27459717 113.00050354 C35.54144371 114.92309686 36.88313681 116.77227949 38.25 118.625 C39.32136771 120.10991632 40.39161954 121.59563819 41.4609375 123.08203125 C42.31703613 124.26659912 42.31703613 124.26659912 43.19042969 125.47509766 C46.47026168 130.05146335 49.66762998 134.68520859 52.875 139.3125 C57.90280683 146.55144521 62.94183988 153.78223299 68 161 C69.13549253 162.62234274 70.27090828 164.24473922 71.40625 165.8671875 C73.29093947 168.56035394 75.17723042 171.25236071 77.06640625 173.94238281 C79.21403468 177.0010968 81.35728102 180.06284544 83.5 183.125 C84.15871094 184.06085938 84.81742187 184.99671875 85.49609375 185.9609375 C87.35647242 188.62405625 89.18381082 191.30659696 91 194 C91.87615967 195.25780273 91.87615967 195.25780273 92.77001953 196.54101562 C97.26501606 203.37095393 97.86684949 208.82176028 97.87890625 216.8515625 C98.0579519 221.81140514 98.0579519 221.81140514 100.74926758 225.79833984 C102.16028304 226.82368312 103.60168394 227.80860328 105.07128906 228.74804688 C107.35718263 230.23185222 108.59519544 231.76521903 109.9375 234.125 C110.31777344 234.76695312 110.69804687 235.40890625 111.08984375 236.0703125 C114.05862559 242.36463967 114.17685844 250.22138724 112.12890625 256.796875 C108.81454816 263.96892857 103.70528846 269.70010588 96.13671875 272.5234375 C87.99512995 274.3392946 80.3961385 273.73881322 73.15625 269.54296875 C66.83360715 265.01861381 63.55082964 259.60034692 62 252 C61.00500161 245.0104434 62.67951283 239.17436993 66 233 C68.11078546 230.4328285 69.87395822 228.54894537 72.875 227.0859375 C75.12491707 225.89747324 76.44838042 225.03704246 78 223 C79.53759662 214.73798082 78.3523048 208.05757651 74 201 C72.29885315 198.62922081 70.4511612 196.41033536 68.5625 194.1875 C63.66215937 188.24703994 59.15676045 182.10805979 54.8125 175.75 C54.24797119 174.92781982 53.68344238 174.10563965 53.10180664 173.25854492 C49.1320136 167.39604081 49.1320136 167.39604081 48 164 C41.50723646 169.44311405 35.5006527 175.34498233 29.52709961 181.3425293 C27.94040054 182.93458966 26.34842258 184.5212299 24.75585938 186.10742188 C19.81682503 191.04356655 14.98633243 196.02399062 10.4465332 201.33520508 C8.45083853 203.63202229 6.30564891 205.75471508 4.125 207.875 C-0.0027707 211.70782938 -0.0027707 211.70782938 -1.15821838 217.01187134 C-1.17376266 218.30426727 -1.18930695 219.59666321 -1.20532227 220.92822266 C-1.21522186 221.64052536 -1.22512146 222.35282806 -1.23532104 223.0867157 C-1.26695858 225.44579726 -1.2917023 227.80489897 -1.31640625 230.1640625 C-1.33697384 231.79788747 -1.35797026 233.43170708 -1.37937927 235.06552124 C-1.43462013 239.36942216 -1.4840205 243.67337126 -1.53222656 247.97735596 C-1.5824269 252.36776018 -1.63812061 256.75809429 -1.69335938 261.1484375 C-1.80096558 269.76556575 -1.90240506 278.38275258 -2 287 C-1.37673828 287.14171631 -0.75347656 287.28343262 -0.11132812 287.42944336 C4.37170448 288.64091968 7.84421492 292.19711369 10.3046875 296.03515625 C14.06796809 303.38316763 15.20436833 310.44774991 12.9375 318.5 C10.59068658 324.84955594 6.25176008 329.9286457 0.5 333.5 C-6.11851511 336.39560036 -14.71038107 336.21908623 -21.5703125 334.26953125 C-28.1106271 331.223187 -32.29877612 326.0805821 -36 320 C-38.19257799 313.42226602 -38.33188952 304.74630914 -35.25 298.4375 C-34.53518745 297.26939168 -33.78771285 296.12024216 -33 295 C-32.401875 294.0925 -31.80375 293.185 -31.1875 292.25 C-28.35793592 289.33959123 -25.63279265 287.81639633 -22 286 C-21.34 286 -20.68 286 -20 286 C-20.00999275 284.59511574 -20.00999275 284.59511574 -20.02018738 283.16184998 C-20.08109868 274.31966544 -20.12602066 265.47752368 -20.15543652 256.63517666 C-20.1710681 252.08962166 -20.19226041 247.54423654 -20.22631836 242.9987793 C-20.25900146 238.60916037 -20.27687187 234.21970447 -20.28463173 229.82997322 C-20.2901592 228.15828957 -20.30095301 226.48661447 -20.31719017 224.81500053 C-20.33908385 222.46688686 -20.34196201 220.11944015 -20.34057617 217.77124023 C-20.351362 217.08575104 -20.36214783 216.40026184 -20.3732605 215.69400024 C-20.33369764 209.46697982 -18.66073558 204.9789386 -14.66511536 200.21774292 C-13.74800278 199.32459381 -12.8308902 198.4314447 -11.88598633 197.51123047 C-11.1245507 196.76096588 -11.1245507 196.76096588 -10.34773254 195.99554443 C-9.25377246 194.92003465 -8.15525158 193.84914764 -7.05262184 192.78252792 C-5.3075167 191.09346014 -3.57596702 189.39149152 -1.84733582 187.68557739 C2.44380277 183.45567465 6.75472619 179.24615963 11.06964111 175.04052734 C14.72548637 171.47674643 18.37133392 167.90334959 22.00335121 164.31528091 C23.70888132 162.63841215 25.42842083 160.97684095 27.14872742 159.31515503 C28.19130727 158.28753977 29.23316149 157.2591876 30.27416992 156.22998047 C31.64625862 154.89264359 31.64625862 154.89264359 33.04606628 153.52828979 C35.19465877 151.17140789 35.19465877 151.17140789 35.40351868 148.33743286 C34.80860322 144.89131002 33.04752672 143.10602952 30.8125 140.4375 C26.12692926 134.66067426 21.98017748 128.61665156 17.9375 122.375 C17.36555908 121.4977124 16.79361816 120.6204248 16.2043457 119.71655273 C12.37992918 113.78127574 10.85286403 109.78876563 10.84228516 102.67041016 C10.83720444 101.92697861 10.83212372 101.18354706 10.82688904 100.41758728 C10.81619217 98.80358684 10.80756931 97.18957164 10.80076981 95.57555008 C10.78897397 93.01988239 10.76951959 90.46438316 10.74765015 87.90878296 C10.68605558 80.64269622 10.63198727 73.37662718 10.59863281 66.11035156 C10.57767922 61.66526808 10.54237141 57.22049259 10.49787521 52.77558517 C10.4837214 51.08277386 10.47499416 49.38990807 10.47182083 47.69704056 C10.46690798 45.32715914 10.44374165 42.9580942 10.41650391 40.58837891 C10.41951004 39.89106155 10.42251617 39.1937442 10.4256134 38.47529602 C10.35189966 34.15315429 9.64676817 31.43434711 7 28 C4.78996527 26.44899877 2.73198918 25.14539841 0.375 23.875 C-0.2530957 23.52953125 -0.88119141 23.1840625 -1.52832031 22.828125 C-6.20313488 20.31184063 -10.75633664 18.03710163 -16 17 C-16.72832031 16.85175781 -17.45664063 16.70351563 -18.20703125 16.55078125 C-27.07952299 15.65323233 -34.54713609 20.86279686 -42 25 C-44.0869888 26.13848067 -46.17424717 27.27646727 -48.26171875 28.4140625 C-61.74833352 35.80580227 -75.04417745 43.49193364 -88.25341797 51.36865234 C-101.53714529 59.25859599 -114.9287613 66.9689396 -128.3125 74.6875 C-129.39523193 75.31229248 -130.47796387 75.93708496 -131.59350586 76.58081055 C-136.61959159 79.47981562 -141.64888715 82.37281742 -146.6875 85.25 C-147.55850342 85.74927002 -148.42950684 86.24854004 -149.3269043 86.76293945 C-150.92532645 87.6790374 -152.52560578 88.59190654 -154.12817383 89.50073242 C-159.93516413 92.83556427 -164.72018294 95.90969483 -168.1875 101.8125 C-168.67605469 102.62332031 -169.16460937 103.43414062 -169.66796875 104.26953125 C-173.52334705 112.17249147 -173.29761079 119.7368201 -173.29052734 128.38964844 C-173.29651816 129.85065045 -173.30332498 131.3116493 -173.31088257 132.77264404 C-173.32849514 136.7274045 -173.33323599 140.68207831 -173.33451414 144.6368742 C-173.33593918 147.11229786 -173.34021549 149.58769974 -173.34550858 152.06311798 C-173.36399436 160.71234018 -173.37218116 169.36150088 -173.37060547 178.01074219 C-173.36940501 186.05134866 -173.39049225 194.09168631 -173.4220928 202.1322248 C-173.4483158 209.05308781 -173.45897022 215.97386336 -173.45769465 222.89477563 C-173.45718671 227.02045929 -173.46277601 231.14590396 -173.48405075 235.27153778 C-173.50353472 239.15572516 -173.50348907 243.03944808 -173.48901749 246.92365265 C-173.48694068 248.34132065 -173.49156231 249.75901851 -173.5037384 251.17663574 C-173.59188521 262.15911164 -172.39877889 272.7606654 -164.4375 281.00390625 C-159.3465078 285.17297198 -153.55415348 288.24057024 -147.8203125 291.42480469 C-144.58559724 293.23145141 -141.369644 295.06988367 -138.15625 296.9140625 C-133.40586722 299.6390495 -128.65268585 302.35891266 -123.89453125 305.0703125 C-116.92676067 309.04174434 -109.9634019 313.0209132 -103 317 C-103 291.26 -103 265.52 -103 239 C-94.81614405 243.09192798 -89.53750836 251.74581383 -86 260 C-84.7230509 263.83084731 -84.86880691 267.42802855 -84.88647461 271.41870117 C-84.88632858 272.27745346 -84.88618256 273.13620575 -84.8860321 274.02098083 C-84.88672921 276.8616691 -84.89451217 279.70229193 -84.90234375 282.54296875 C-84.90420865 284.51166244 -84.90563221 286.48035659 -84.90663147 288.4490509 C-84.91045099 293.63253051 -84.92027648 298.81598214 -84.93133545 303.99945068 C-84.9415617 309.2880414 -84.9461317 314.57663663 -84.95117188 319.86523438 C-84.96189923 330.24350188 -84.9789689 340.62174862 -85 351 C-88.93195472 349.7282356 -92.36655837 348.38267032 -95.921875 346.26953125 C-96.85088623 345.72192139 -97.77989746 345.17431152 -98.73706055 344.61010742 C-100.22846558 343.72029175 -100.22846558 343.72029175 -101.75 342.8125 C-103.91756268 341.53316591 -106.08554557 340.25454358 -108.25390625 338.9765625 C-109.92864014 337.9870459 -109.92864014 337.9870459 -111.63720703 336.97753906 C-116.96604114 333.84384106 -122.32761724 330.76767501 -127.6875 327.6875 C-131.53496014 325.46856502 -135.38087919 323.24697136 -139.22631836 321.02453613 C-141.08200204 319.95263296 -142.93845636 318.88207187 -144.79492188 317.81152344 C-148.04781971 315.93465061 -151.29652609 314.05067788 -154.5428772 312.1625061 C-155.78201851 311.44306843 -157.02235052 310.72567668 -158.26400757 310.0105896 C-174.47996428 300.66674829 -186.98516418 292.41732786 -193 274 C-193.84944789 269.7302145 -194.13100905 265.67930489 -194.14717102 261.32969666 C-194.15268605 260.36183813 -194.15268605 260.36183813 -194.1583125 259.3744269 C-194.16926916 257.22609077 -194.17317946 255.07780314 -194.17700195 252.92944336 C-194.18327277 251.38316701 -194.18992011 249.83689214 -194.19691467 248.2906189 C-194.21788756 243.22370438 -194.22831214 238.15678981 -194.23828125 233.08984375 C-194.24233163 231.33989509 -194.24644863 229.58994659 -194.25063133 227.83999825 C-194.26966976 219.61471121 -194.28390245 211.38943306 -194.2922433 203.16412824 C-194.30200471 193.69639791 -194.3283012 184.22890204 -194.36874419 174.76125425 C-194.39899377 167.42595701 -194.41372061 160.09072665 -194.41702431 152.75536829 C-194.41936508 148.38255641 -194.42819763 144.00999539 -194.45348549 139.6372509 C-194.4769261 135.51753578 -194.48093598 131.39823385 -194.47072411 127.27846909 C-194.47023246 125.77616938 -194.47644176 124.27384821 -194.49028015 122.77161217 C-194.62501045 107.26359167 -191.28867634 93.56742407 -180.4140625 82.0859375 C-176.07833065 77.84078087 -171.39398094 74.89540618 -166.125 71.9375 C-165.17592773 71.39077637 -164.22685547 70.84405273 -163.24902344 70.28076172 C-161.21822714 69.11234482 -159.18428148 67.94938721 -157.14746094 66.79150391 C-153.98848784 64.99344739 -150.84052341 63.17747846 -147.6953125 61.35546875 C-142.23766468 58.19485837 -136.77271263 55.04714717 -131.30566406 51.90283203 C-128.05351687 50.03080579 -124.8036623 48.15486965 -121.5546875 46.27734375 C-109.26720187 39.17705651 -96.96468529 32.10361749 -84.63720703 25.07299805 C-83.46906782 24.40675179 -82.30093633 23.74049198 -81.1328125 23.07421875 C-80.55234161 22.74314621 -79.97187073 22.41207367 -79.37380981 22.07096863 C-75.68885785 19.96787123 -72.0086831 17.8566438 -68.33175659 15.73954773 C-65.82464424 14.29620934 -63.31613408 12.85530953 -60.80755615 11.41452026 C-59.06584163 10.41286533 -57.32609379 9.407793 -55.58642578 8.40258789 C-37.85125241 -1.77695196 -19.9388366 -10.15905397 0 0 Z " fill="#31B3EB" transform="translate(203,6)"/>
<path d="M0 0 C3.92351139 0.37882179 7.20111491 1.85024801 10.75 3.5 C11.71421875 3.9434375 12.6784375 4.386875 13.671875 4.84375 C16 6 16 6 17 7 C17.08641619 8.65649218 17.10407617 10.31662624 17.09423828 11.9753418 C17.09158966 13.03702072 17.08894104 14.09869965 17.08621216 15.19255066 C17.08096527 16.34975113 17.07571838 17.5069516 17.0703125 18.69921875 C17.07889901 21.12956445 17.08937578 23.55990406 17.1015625 25.99023438 C17.11825291 29.83761837 17.12502541 33.68365323 17.09960938 37.53100586 C17.07864815 41.23375877 17.10188852 44.93408176 17.1328125 48.63671875 C17.11542023 49.78379807 17.09802795 50.93087738 17.08010864 52.11271667 C17.04529793 57.9470039 17.04529793 57.9470039 19.54803467 63.00845337 C21.29694569 64.49668406 23.09340357 65.72730032 25 67 C29.21103993 72.56943991 28.60512377 79.32659278 28 86 C26.32064097 91.43322039 22.63466559 94.8597776 18 98 C12.71371555 100.52672324 7.76492175 100.78428809 2 100 C-3.67922851 97.76853247 -7.49738517 93.8824328 -11 89 C-12.9200904 83.2397288 -13.23011687 76.18354245 -11.0234375 70.47265625 C-9.27945416 67.59989841 -7.8527087 65.51129309 -4.93936157 63.76441956 C-2.75305809 62.12925375 -2.75305809 62.12925375 -2.49447632 59.37486267 C-2.49020126 57.79506371 -2.49020126 57.79506371 -2.48583984 56.18334961 C-2.4725766 54.98878647 -2.45931335 53.79422333 -2.44564819 52.5634613 C-2.45069366 51.27279251 -2.45573914 49.98212372 -2.4609375 48.65234375 C-2.45103299 47.3161915 -2.43909267 45.98005291 -2.42520142 44.64393616 C-2.39282365 41.12818597 -2.38244552 37.6127474 -2.37835693 34.09686279 C-2.36960277 28.46570564 -2.33419246 22.83480455 -2.2861824 17.20385933 C-2.27356756 15.23514135 -2.27494031 13.26634997 -2.27645874 11.29759216 C-2.26949982 10.10618118 -2.26254089 8.9147702 -2.25537109 7.68725586 C-2.25411224 6.63485214 -2.25285339 5.58244843 -2.2515564 4.49815369 C-2 2 -2 2 0 0 Z " fill="#3581DB" transform="translate(230,213)"/>
<path d="M0 0 C4.62755222 4.1920179 8.55845793 8.69087646 9.2109375 15.05859375 C9.54511623 22.68043945 7.17003015 28.34527952 2 34 C1.01 34.66 0.02 35.32 -1 36 C-1.46392562 38.52781595 -1.46392562 38.52781595 -1.40063477 41.51953125 C-1.41397354 42.67412842 -1.42731232 43.82872559 -1.4410553 45.01831055 C-1.44117111 46.27039307 -1.44128693 47.52247559 -1.44140625 48.8125 C-1.46158242 50.76750403 -1.48176877 52.72250802 -1.50257015 54.67750549 C-1.52828445 57.4207583 -1.54077804 60.16400728 -1.55297852 62.90734863 C-1.57482183 67.70811762 -1.60581602 72.50875008 -1.65428162 77.30932617 C-1.67876266 79.86670474 -1.69352 82.42419745 -1.69789124 84.98168945 C-1.70807785 86.13628662 -1.71826447 87.29088379 -1.72875977 88.48046875 C-1.73303482 89.50035889 -1.73730988 90.52024902 -1.74171448 91.57104492 C-2 94 -2 94 -4 96 C-10.67744097 97.16855217 -13.26652588 94.36673706 -20 91 C-20 72.85 -20 54.7 -20 36 C-21.65 35.34 -23.3 34.68 -25 34 C-26.765625 32.1953125 -26.765625 32.1953125 -28.25 30.125 C-28.75015625 29.44695312 -29.2503125 28.76890625 -29.765625 28.0703125 C-32.51685921 23.45590069 -32.70116007 18.23424144 -32 13 C-29.91158064 6.42245492 -27.01155906 2.20445167 -20.96484375 -1.16015625 C-14.00637786 -4.13445082 -6.53305266 -3.86859197 0 0 Z " fill="#3581DB" transform="translate(134,73)"/>
<path d="M0 0 C4.36350222 2.22291622 7.09544338 4.45022584 9 9 C9.54223844 13.26044487 9.30065535 15.42096006 7.3125 19.25 C4.54131763 22.54546012 2.45309777 24.64101008 -1.921875 25.28125 C-6.41340304 25.48387533 -9.43631651 24.95276632 -13 22 C-16.09343127 18.37321851 -16.62789555 14.92538453 -16.49609375 10.2890625 C-15.62408526 6.26546427 -13.04201594 3.64797243 -10 1 C-6.78314421 -0.60842789 -3.4888991 -0.46778535 0 0 Z " fill="#FBFCFE" transform="translate(80,118)"/>
<path d="M0 0 C3.78171013 2.03630545 7.09528802 4.08475871 9 8 C9.58052227 12.28941457 9.47224019 15.85668166 7.8125 19.875 C5.15722613 22.98807971 2.99804331 24.66391508 -1.11328125 25.35546875 C-5.26763753 25.61380687 -8.11792301 25.38613467 -11.4375 22.75 C-14.81439385 19.12601636 -15.82874435 17.54130086 -16.375 12.625 C-15.92515417 8.27649031 -14.79790424 6.32723747 -12 3 C-8.07324125 -0.18385844 -4.98824428 -0.6125914 0 0 Z " fill="#FBFCFE" transform="translate(294,241)"/>
<path d="M0 0 C3.00559099 1.79335679 5.40823657 3.81647313 7 7 C7.57717357 11.73093088 7.43416625 15.14717343 5.25 19.4375 C2.65393889 22.39412515 0.73176435 23.70087707 -3.1484375 24.37109375 C-7.28770068 24.49454546 -10.12211901 24.39741725 -13.4375 21.75 C-16.81439385 18.12601636 -17.82874435 16.54130086 -18.375 11.625 C-17.8302996 6.3595628 -15.72016382 3.52357367 -11.8125 0.0625 C-7.67945839 -1.49887128 -4.21796081 -1.23796038 0 0 Z " fill="#FAFCFE" transform="translate(179,60)"/>
<path d="M0 0 C3.22531565 1.6388799 5.28267527 3.98922425 7.375 6.9375 C8.25688519 9.84772112 8.36405994 11.96616714 8 15 C5.86199129 18.89423016 3.76766669 21.65114833 0 24 C-4.77153538 24.86120395 -8.79427124 24.70334178 -13 22.25 C-16.67916439 18.11094006 -17.49336702 14.70276511 -17.39453125 9.2578125 C-16.72202988 5.40924032 -14.79323112 3.66022012 -12 1 C-8.27083603 -0.86458199 -4.06038696 -0.56048286 0 0 Z " fill="#FCFDFE" transform="translate(196,304)"/>
<path d="M0 0 C2 1.625 2 1.625 3 4 C2.93416738 7.75245951 2.81598805 10.06312483 0.3125 12.9375 C-2.76819895 14.35295627 -4.64720251 14.55879958 -8 14 C-10.88629588 11.41752474 -11.86270511 9.74749439 -12.5625 5.9375 C-12 3 -12 3 -9.9375 0.5625 C-6.08703161 -1.48562148 -4.14064223 -1.22685696 0 0 Z " fill="#F8FBFD" transform="translate(127,84)"/>
<path d="M0 0 C2.375 1.5625 2.375 1.5625 4 4 C4.56783945 7.97487617 4.62340519 10.06489221 2.375 13.4375 C-0.69817115 15.45932313 -2.38247881 15.52755517 -6 15 C-8.375 14 -8.375 14 -10 12 C-10.5659239 7.54334931 -10.82483134 5.26897129 -8.375 1.5 C-5.27859404 -0.45562482 -3.60146865 -0.60024477 0 0 Z " fill="#F8FBFD" transform="translate(241,285)"/>
<path d="M0 0 C0 3 0 3 -1.17687988 4.53764343 C-2.00294739 5.35371819 -2.00294739 5.35371819 -2.84570312 6.1862793 C-3.46634644 6.80669601 -4.08698975 7.42711273 -4.72644043 8.06632996 C-5.40452759 8.72893326 -6.08261475 9.39153656 -6.78125 10.07421875 C-7.46932739 10.7580513 -8.15740479 11.44188385 -8.86633301 12.1464386 C-11.07063179 14.33391366 -13.28512144 16.51074286 -15.5 18.6875 C-16.99417133 20.16662934 -18.48766988 21.64643865 -19.98046875 23.12695312 C-23.64587892 26.75924493 -27.32046381 30.38202091 -31 34 C-31.66 33.67 -32.32 33.34 -33 33 C-32.25556641 32.27296875 -32.25556641 32.27296875 -31.49609375 31.53125 C-28.03777095 28.11886318 -24.66693442 24.68622389 -21.5 21 C-16.0139219 14.64311585 -10.03777925 8.90487067 -3.6640625 3.4453125 C-2.39833536 2.34597202 -1.1854566 1.1854566 0 0 Z " fill="#5D99E2" transform="translate(153,181)"/>
</svg>
